<svg width="64" height="64" viewBox="0 0 64 64" fill="none" xmlns="http://www.w3.org/2000/svg">
<path d="M13.3334 40.0002H10.6667C9.25222 40.0002 7.89567 39.4383 6.89547 38.4381C5.89528 37.4379 5.33337 36.0813 5.33337 34.6668V10.6668C5.33337 9.25234 5.89528 7.89579 6.89547 6.89559C7.89567 5.8954 9.25222 5.3335 10.6667 5.3335H34.6667C36.0812 5.3335 37.4377 5.8954 38.4379 6.89559C39.4381 7.89579 40 9.25234 40 10.6668V13.3335M29.3334 24.0002H53.3334C56.2789 24.0002 58.6667 26.388 58.6667 29.3335V53.3335C58.6667 56.279 56.2789 58.6668 53.3334 58.6668H29.3334C26.3879 58.6668 24 56.279 24 53.3335V29.3335C24 26.388 26.3879 24.0002 29.3334 24.0002Z" stroke="white" stroke-width="5.33333" stroke-linecap="round" stroke-linejoin="round"/>
</svg>
